<svg width="297" height="137" viewBox="0 0 297 137" fill="none" xmlns="http://www.w3.org/2000/svg">
<path d="M294.277 69.1268C304.471 23.2478 279.125 34.2961 253.277 53.3769C233.81 71.1134 229.419 101.6 206.075 115.803C201.666 119.873 185.012 123.454 185.646 129.355C210.226 145.195 244.015 132.134 266.042 112.434C280.025 99.9495 290.052 84.5683 294.277 69.1268Z" fill="#6C3428"/>
<path d="M175.502 116.183C178.618 119.345 182.246 119.782 185.898 118.848C221.278 108.085 226.373 68.1462 251.614 46.3445C261.04 38.3235 273.768 35.7812 282.674 27.1909C277.548 14.0008 260.312 14.253 246.507 15.6294C206.181 21.1594 152.575 74.685 175.502 116.183Z" fill="#6C3428"/>
<path d="M125.074 14.2974C124.643 14.178 124.216 14.0267 123.789 13.8589C124.241 14.4118 124.465 15.0472 125.074 14.2974Z" fill="#6C3428"/>
<path d="M42.6423 0.0722046C-4.14556 4.48376 14.1622 25.2059 40.27 43.9278C63.1316 56.9947 93.4936 51.7984 114.187 69.6396C119.417 72.5826 127.946 87.3295 133.366 84.9113C140.877 56.6504 118.058 28.5175 92.5362 13.6163C76.3556 4.153 58.6357 -0.657234 42.6423 0.0722046Z" fill="#6C3428"/>
<path d="M123.953 98.6145C126.002 94.6763 125.302 91.0902 123.291 87.9038C102.166 57.5486 62.5981 64.9846 34.0884 47.674C23.5582 41.1731 17.2226 29.8435 6.30976 24.0118C-4.66482 32.9446 0.878151 49.2687 6.43305 61.9805C24.0995 98.6533 91.5177 133.194 123.953 98.6145Z" fill="#6C3428"/>
</svg>
