<svg width="80" height="80" viewBox="0 0 80 80" fill="none" xmlns="http://www.w3.org/2000/svg">
<circle cx="40" cy="40" r="40" fill="#6C3428"/>
<path d="M55.9092 36.0228H43.9773V24.091C43.9773 22.6268 42.79 21.4395 41.3258 21.4395H38.6743C37.2102 21.4395 36.0228 22.6268 36.0228 24.091V36.0228H24.091C22.6268 36.0228 21.4395 37.2102 21.4395 38.6743V41.3258C21.4395 42.79 22.6268 43.9773 24.091 43.9773H36.0228V55.9092C36.0228 57.3733 37.2102 58.5607 38.6743 58.5607H41.3258C42.79 58.5607 43.9773 57.3733 43.9773 55.9092V43.9773H55.9092C57.3733 43.9773 58.5607 42.79 58.5607 41.3258V38.6743C58.5607 37.2102 57.3733 36.0228 55.9092 36.0228Z" fill="#FFEACD"/>
</svg>
